<svg height="512" width="512" xml:space="preserve" xmlns="http://www.w3.org/2000/svg"><path d="M511.992 256.001c0 141.387-114.607 255.98-255.996 255.98C114.615 511.981.008 397.387.008 256.001.008 114.62 114.615.019 255.996.019c141.389 0 255.996 114.601 255.996 255.982z" fill="#33739E"/><path d="M504.844 316.007 396.268 207.415l-74.765 47.875-50.71-50.711-52.554 52.545 39.187 39.188-7.875 5.047-94.271-94.287-32.109 32.102 87.241 87.24L179.6 346.14l153.88 153.881c84.795-26.899 150.403-96.75 171.364-184.014z" opacity=".15"/><path d="M261.199 368.546c7.695 0 10.852-5.117 10.742-11.531-.391-24.203 9.039-37.234 26.039-20.266 18.813 18.797 22.702 31.797 45.554 31.797h40.444c31.82 0 3.469-31.891-18.945-52.672-21.312-19.75-22.319-20.227-3.969-44 22.789-29.514 52.578-67.553 26.219-67.553h-50.319c-9.773 0-10.484 5.695-13.945 13.891-12.569 29.602-36.483 67.99-45.554 62.123-9.516-6.133-5.164-26.92-4.438-62.951.195-9.516.141-16.063-14.414-19.43-39.78-9.227-74.24 8.906-60.163 11.516 19.844 3.703 17.945 43.156 13.328 61.693-8.063 32.258-38.39-25.537-51.015-54.334-3.055-6.922-3.984-12.508-14.867-12.508h-41.152c-7.926 0-11.815 3.625-9.034 10.992 2.757 7.352 34.608 78.475 72.257 119.053 34.827 37.555 69.271 34.18 93.232 34.18z" fill="#F4F6F9"/></svg>